<svg xmlns="http://www.w3.org/2000/svg" width="128" height="128" viewBox="0 0 128 128">
  <defs>
    <linearGradient id="gradient" x1="0%" y1="0%" x2="100%" y2="100%">
      <stop offset="0%" stop-color="#3B82F6" />
      <stop offset="100%" stop-color="#A855F7" />
    </linearGradient>
    <filter id="shadow" x="-10%" y="-10%" width="120%" height="120%">
      <feDropShadow dx="0" dy="2" stdDeviation="4" flood-opacity="0.2" />
    </filter>
  </defs>
  <!-- Background circle with gradient -->
  <circle cx="64" cy="64" r="60" fill="url(#gradient)" filter="url(#shadow)" />
  
  <!-- Speech bubble -->
  <path d="M94 55C94 44.5 82 36 67 36C52 36 40 44.5 40 55C40 61.4 44.6 67 51.7 70.3C50.8 74.2 48.4 77.7 45 80C52.7 80 59.5 76.5 63.2 71.2C64.5 71.3 65.7 71.4 67 71.4C82 71.4 94 63.9 94 55Z" fill="white" />
  
  <!-- @ Symbol -->
  <text x="67" y="61" text-anchor="middle" font-size="30" font-weight="bold" fill="#3B82F6" font-family="Arial, sans-serif">@</text>
  
  <!-- Circular connectors -->
  <circle cx="38" cy="86" r="8" fill="white" />
  <circle cx="64" cy="94" r="8" fill="white" />
  <circle cx="90" cy="86" r="8" fill="white" />
  
  <!-- Connection lines -->
  <path d="M46 82L61 89M67 89L82 82" stroke="white" stroke-width="3" stroke-linecap="round" />
</svg>
